<?xml version="1.0" standalone="no"?>
<!DOCTYPE svg PUBLIC "-//W3C//DTD SVG 20010904//EN"
 "http://www.w3.org/TR/2001/REC-SVG-20010904/DTD/svg10.dtd">
<svg version="1.0" xmlns="http://www.w3.org/2000/svg"
 width="512.000000pt" height="512.000000pt" viewBox="0 0 512.000000 512.000000"
 preserveAspectRatio="xMidYMid meet">
<metadata>
Created by potrace 1.14, written by Peter Selinger 2001-2017
</metadata>
<g transform="translate(0.000000,512.000000) scale(0.100000,-0.100000)"
fill="#000000" stroke="none">
<path d="M2368 5114 c-4 -3 -26 -7 -50 -9 -24 -2 -59 -6 -78 -9 -19 -3 -57 -9
-85 -13 -27 -4 -52 -7 -55 -8 -3 -1 -20 -5 -38 -9 -19 -4 -43 -9 -55 -11 -67
-7 -379 -106 -401 -126 -6 -5 -20 -9 -33 -9 -13 0 -23 -4 -23 -10 0 -5 -6 -10
-12 -10 -7 0 -67 -28 -133 -61 -66 -34 -130 -66 -142 -73 -13 -6 -23 -14 -23
-18 0 -5 -6 -8 -14 -8 -8 0 -16 -4 -18 -8 -1 -4 -20 -18 -41 -30 -182 -106
-470 -371 -630 -581 -43 -55 -77 -102 -77 -105 0 -3 -9 -15 -20 -26 -12 -12
-18 -25 -15 -30 3 -4 0 -10 -6 -12 -30 -10 -278 -498 -253 -498 2 0 -2 -13
-10 -29 -9 -16 -12 -31 -9 -35 4 -3 2 -6 -4 -6 -5 0 -10 -6 -10 -12 0 -7 -13
-53 -28 -103 -15 -49 -29 -99 -31 -110 -1 -11 -6 -31 -9 -45 -3 -14 -8 -36
-10 -50 -2 -14 -7 -36 -10 -50 -6 -25 -12 -62 -21 -135 -3 -22 -8 -53 -11 -70
-9 -51 -13 -455 -5 -455 5 0 9 -19 10 -42 1 -24 3 -56 6 -73 3 -16 7 -48 10
-70 6 -42 14 -80 16 -80 1 0 3 -11 5 -25 3 -22 10 -59 18 -95 2 -5 6 -16 10
-22 5 -7 6 -13 3 -13 -2 0 5 -30 16 -67 11 -38 21 -75 23 -83 2 -14 15 -50 32
-90 8 -19 8 -19 18 -55 12 -44 144 -319 155 -323 6 -2 10 -9 10 -15 0 -22 166
-268 247 -366 36 -44 110 -126 144 -160 79 -78 169 -161 174 -161 3 0 16 -10
29 -23 33 -32 95 -81 117 -91 11 -5 19 -13 19 -18 0 -5 5 -6 10 -3 6 3 10 2
10 -3 0 -5 28 -27 63 -49 102 -66 237 -143 237 -136 0 3 8 -1 19 -11 10 -9 28
-18 39 -21 11 -2 31 -10 44 -19 43 -28 334 -135 409 -150 47 -10 71 -15 87
-20 9 -3 33 -8 52 -11 19 -3 42 -8 50 -10 24 -7 141 -25 210 -32 72 -8 470 -8
525 0 28 4 68 9 90 11 22 3 85 15 140 26 55 12 111 24 125 26 14 3 34 8 45 11
11 4 25 8 30 9 51 9 322 110 335 123 3 4 12 7 20 9 24 5 187 90 270 140 114
70 202 132 319 227 14 11 49 43 78 71 29 28 53 49 53 47 0 -3 14 10 31 28 17
19 57 61 88 95 31 33 70 77 86 98 29 36 37 47 78 95 9 12 17 24 17 28 0 4 8
16 18 27 59 67 270 452 280 511 2 11 7 25 12 30 7 9 70 197 74 220 1 6 5 16 9
23 5 6 6 12 2 12 -3 0 -1 8 4 18 5 9 12 35 15 57 4 22 9 48 12 57 18 57 43
213 48 303 2 22 6 47 9 55 8 18 3 364 -6 430 -3 25 -9 70 -13 100 -5 30 -9 60
-9 65 -1 6 -5 26 -10 45 -4 19 -9 42 -10 50 -1 8 -5 29 -8 45 -4 17 -10 41
-13 55 -3 14 -7 32 -8 40 -1 8 -7 25 -14 36 -6 12 -9 24 -6 27 3 3 2 12 -2 19
-5 7 -9 16 -10 21 -1 4 -2 8 -4 10 -1 1 -3 10 -6 20 -6 27 -10 41 -17 57 -3 8
-15 42 -27 75 -88 249 -277 567 -454 765 -102 114 -307 308 -386 364 -225 160
-397 257 -602 339 -111 44 -298 105 -348 112 -14 2 -26 4 -27 6 -4 2 -12 4
-68 14 -27 4 -57 10 -65 12 -16 4 -50 9 -120 18 -25 3 -58 8 -75 11 -42 8
-430 16 -437 8z"/>
</g>
</svg>
